<?xml version="1.0" encoding="iso-8859-1"?>
<!-- Generator: Adobe Illustrator 19.0.0, SVG Export Plug-In . SVG Version: 6.00 Build 0)  -->
<svg version="1.1" id="Capa_1" xmlns="http://www.w3.org/2000/svg" xmlns:xlink="http://www.w3.org/1999/xlink" x="0px" y="0px"
	 viewBox="0 0 463 463" style="enable-background:new 0 0 463 463;" xml:space="preserve">
<g fill="#FFFFFF">
	<path d="M367.5,32h-57.734c-3.138-9.29-11.93-16-22.266-16h-24.416c-7.41-9.965-19.148-16-31.584-16
		c-12.435,0-24.174,6.035-31.585,16H175.5c-10.336,0-19.128,6.71-22.266,16H95.5C78.131,32,64,46.131,64,63.5v368
		c0,17.369,14.131,31.5,31.5,31.5h272c17.369,0,31.5-14.131,31.5-31.5v-368C399,46.131,384.869,32,367.5,32z M175.5,87h112
		c7.023,0,13.332-3.101,17.641-8H352v337H111V79h46.859C162.168,83.899,168.477,87,175.5,87z M175.5,31h28.438
		c2.67,0,5.139-1.419,6.482-3.727C214.893,19.588,222.773,15,231.5,15c8.728,0,16.607,4.588,21.079,12.272
		c1.343,2.308,3.813,3.728,6.482,3.728H287.5c4.687,0,8.5,3.813,8.5,8.5v24c0,4.687-3.813,8.5-8.5,8.5h-112
		c-4.687,0-8.5-3.813-8.5-8.5v-24C167,34.813,170.813,31,175.5,31z M384,431.5c0,9.098-7.402,16.5-16.5,16.5h-272
		c-9.098,0-16.5-7.402-16.5-16.5v-368C79,54.402,86.402,47,95.5,47H152v16.5c0,0.168,0.009,0.333,0.013,0.5H103.5
		c-4.143,0-7.5,3.358-7.5,7.5v352c0,4.142,3.357,7.5,7.5,7.5h256c4.143,0,7.5-3.358,7.5-7.5v-352c0-4.142-3.357-7.5-7.5-7.5h-48.513
		c0.004-0.167,0.013-0.332,0.013-0.5V47h56.5c9.098,0,16.5,7.402,16.5,16.5V431.5z"/>
	<path d="M231.5,47c1.979,0,3.91-0.8,5.3-2.2c1.4-1.39,2.2-3.33,2.2-5.3c0-1.97-0.8-3.91-2.2-5.3c-1.39-1.4-3.32-2.2-5.3-2.2
		c-1.98,0-3.91,0.8-5.3,2.2c-1.4,1.39-2.2,3.32-2.2,5.3s0.8,3.91,2.2,5.3C227.59,46.2,229.52,47,231.5,47z"/>
	<path d="M183.5,159h136c4.143,0,7.5-3.358,7.5-7.5s-3.357-7.5-7.5-7.5h-136c-4.143,0-7.5,3.358-7.5,7.5S179.357,159,183.5,159z"/>
	<path d="M183.5,239h136c4.143,0,7.5-3.358,7.5-7.5s-3.357-7.5-7.5-7.5h-136c-4.143,0-7.5,3.358-7.5,7.5S179.357,239,183.5,239z"/>
	<path d="M183.5,319h24c4.143,0,7.5-3.358,7.5-7.5s-3.357-7.5-7.5-7.5h-24c-4.143,0-7.5,3.358-7.5,7.5S179.357,319,183.5,319z"/>
	<path d="M183.5,199h136c4.143,0,7.5-3.358,7.5-7.5s-3.357-7.5-7.5-7.5h-136c-4.143,0-7.5,3.358-7.5,7.5S179.357,199,183.5,199z"/>
	<path d="M183.5,279h32c4.143,0,7.5-3.358,7.5-7.5s-3.357-7.5-7.5-7.5h-32c-4.143,0-7.5,3.358-7.5,7.5S179.357,279,183.5,279z"/>
	<path d="M183.5,359h32c4.143,0,7.5-3.358,7.5-7.5s-3.357-7.5-7.5-7.5h-32c-4.143,0-7.5,3.358-7.5,7.5S179.357,359,183.5,359z"/>
	<path d="M143.5,159h8c4.143,0,7.5-3.358,7.5-7.5s-3.357-7.5-7.5-7.5h-8c-4.143,0-7.5,3.358-7.5,7.5S139.357,159,143.5,159z"/>
	<path d="M143.5,239h8c4.143,0,7.5-3.358,7.5-7.5s-3.357-7.5-7.5-7.5h-8c-4.143,0-7.5,3.358-7.5,7.5S139.357,239,143.5,239z"/>
	<path d="M143.5,319h8c4.143,0,7.5-3.358,7.5-7.5s-3.357-7.5-7.5-7.5h-8c-4.143,0-7.5,3.358-7.5,7.5S139.357,319,143.5,319z"/>
	<path d="M143.5,199h8c4.143,0,7.5-3.358,7.5-7.5s-3.357-7.5-7.5-7.5h-8c-4.143,0-7.5,3.358-7.5,7.5S139.357,199,143.5,199z"/>
	<path d="M143.5,279h8c4.143,0,7.5-3.358,7.5-7.5s-3.357-7.5-7.5-7.5h-8c-4.143,0-7.5,3.358-7.5,7.5S139.357,279,143.5,279z"/>
	<path d="M143.5,359h8c4.143,0,7.5-3.358,7.5-7.5s-3.357-7.5-7.5-7.5h-8c-4.143,0-7.5,3.358-7.5,7.5S139.357,359,143.5,359z"/>
	<path d="M279.5,264c-26.191,0-47.5,21.309-47.5,47.5s21.309,47.5,47.5,47.5c10.583,0,20.367-3.482,28.272-9.357
		c0.074-0.052,0.155-0.088,0.228-0.143c0.2-0.15,0.389-0.309,0.57-0.474C319.771,340.329,327,326.747,327,311.5
		C327,285.309,305.691,264,279.5,264z M272,279.883V304h-24.117C250.708,292.094,260.094,282.708,272,279.883z M247.883,319h27.867
		l16.719,22.292c-3.976,1.737-8.36,2.708-12.969,2.708C264.161,344,251.279,333.315,247.883,319z M304.463,332.284L287,309v-29.117
		c14.315,3.396,25,16.278,25,31.617C312,319.398,309.165,326.646,304.463,332.284z"/>
</g>
<g>
</g>
<g>
</g>
<g>
</g>
<g>
</g>
<g>
</g>
<g>
</g>
<g>
</g>
<g>
</g>
<g>
</g>
<g>
</g>
<g>
</g>
<g>
</g>
<g>
</g>
<g>
</g>
<g>
</g>
</svg>
